# xmcd CD database file
#
# Track frame offsets:
#	150
#	15695
#	41352
#	61585
#	79235
#	97360
#	128532
#	158532
#	193390
#
# Disc length: 2941 seconds
#
# Revision: 0
# Processed by: cddbd v1.5.1PL2 Copyright (c) Steve Scherf et al.
# Submitted via: CDex 1.51
#
DISCID=6c0b7b09
DTITLE=Bud Powell - THE ESSEN JAZZ FESTIVAL ALL STARS
DYEAR=1900
DGENRE=Jazz
TTITLE0=SHAW NUFF
TTITLE1=BLUES IN THE CLOSET
TTITLE2=WILLOW WEEP FOR ME
TTITLE3=JOHN'S ABBEY
TTITLE4=SALT PEANUTS
TTITLE5=ALL THE THINGS YOU ARE 
TTITLE6=YESTERDAYS
TTITLE7=STUFFY
TTITLE8=JUST YOU , JUST ME
EXTD=
EXTT0=
EXTT1=
EXTT2=
EXTT3=
EXTT4=
EXTT5=
EXTT6=
EXTT7=
EXTT8=
PLAYORDER=
